<?xml version="1.0" encoding="UTF-8"?>
<svg width="512px" height="512px" viewBox="0 0 512 512" version="1.1" xmlns="http://www.w3.org/2000/svg" xmlns:xlink="http://www.w3.org/1999/xlink">
    <!-- Generator: Sketch 55.2 (78181) - https://sketchapp.com -->
    <title>Architect</title>
    <desc>Created with Sketch.</desc>
    <g id="Architect" stroke="none" stroke-width="1" fill="none" fill-rule="evenodd">
        <g id="architect-logo" transform="translate(6.000000, 19.000000)" fill-rule="nonzero">
            <g id="Group">
                <polygon id="Path" fill="#009688" points="499.1 159.7 249.9 319.1 0.9 160.2 250.4 0.7"></polygon>
                <g transform="translate(0.000000, 160.000000)" fill="#006E64" id="Path">
                    <polygon points="250 263.8 0.6 84.9 0.9 0.3 250 160.5"></polygon>
                    <polygon points="0.9 49.8 250 160.7 250 313.3 0.9 153.1"></polygon>
                </g>
                <g transform="translate(250.000000, 160.000000)" fill="#009688" id="Path">
                    <polygon points="249.4 49.8 0 228.7 0.3 313.3 249.4 153.1"></polygon>
                    <polygon points="0.3 263.8 249.4 153 249.4 0.3 0.3 160.5"></polygon>
                </g>
            </g>
            <g id="Group" transform="translate(79.000000, 66.000000)" fill="#FFFFFF">
                <path d="M341.098497,96.2035607 L341.098497,96.2035607 L341.098497,96.2035607 C341.098497,97.6950805 341.173533,99.4577533 341.323606,101.491579 L341.323606,101.491579 L341.323606,101.491579 C341.474034,103.525405 341.549249,105.830384 341.549249,108.406516 L341.549249,108.406516 L341.549249,108.406516 C341.549249,111.661065 341.023283,115.695045 339.971352,120.508456 L339.971352,120.508456 L339.971352,120.508456 C338.919065,125.321868 337.228258,130.372761 334.898931,135.661136 L334.898931,135.661136 L334.898931,135.661136 C332.569249,140.949154 329.450796,146.237173 325.543572,151.525191 L325.543572,151.525191 L325.543572,151.525191 C321.635993,156.813566 316.826733,161.559457 311.115793,165.762863 L311.115793,165.762863 L311.115793,165.762863 C305.404852,169.965913 298.679321,173.389532 290.939199,176.033719 L290.939199,176.033719 L290.939199,176.033719 C283.199432,178.677906 274.370039,180 264.451018,180 L264.451018,180 L264.451018,180 C255.583929,180 246.528893,178.474452 237.28591,175.423357 L237.28591,175.423357 L237.28591,175.423357 C228.043283,172.372619 219.627123,167.626906 212.037429,161.18622 L212.037429,161.18622 L212.037429,161.18622 C204.448091,154.745534 198.211185,146.542175 193.326711,136.576144 L193.326711,136.576144 L193.326711,136.576144 C188.442237,126.610112 186,114.711803 186,100.881218 L186,100.881218 L186,100.881218 C186,92.2032519 187.239878,83.6608627 189.719633,75.2540501 L189.719633,75.2540501 L189.719633,75.2540501 C192.199388,66.8472374 195.505787,58.9150316 199.638831,51.4574327 L199.638831,51.4574327 L199.638831,51.4574327 C203.771875,43.9998337 208.656171,37.1185686 214.29172,30.8136372 L214.29172,30.8136372 L214.29172,30.8136372 C219.927624,24.5083496 225.864029,19.0845765 232.100935,14.5423179 L232.100935,14.5423179 L232.100935,14.5423179 C238.338197,10.0000594 244.800745,6.44068602 251.488581,3.86419782 L251.488581,3.86419782 L251.488581,3.86419782 C258.176416,1.28806594 264.676305,0 270.988247,0 L270.988247,0 L270.988247,0 C281.959555,0 291.014591,1.55939712 298.153355,4.67819136 L298.153355,4.67819136 L298.153355,4.67819136 C305.29212,7.79662929 310.965542,11.6610053 315.173622,16.2713193 L315.173622,16.2713193 L315.173622,16.2713193 C319.381703,20.881277 322.349905,25.7964155 324.07823,31.0167348 L324.07823,31.0167348 L324.07823,31.0167348 C325.806555,36.237054 326.670718,40.9489168 326.670718,45.1523232 L326.670718,45.1523232 L326.670718,45.1523232 C326.670718,49.2203311 325.58109,53.8644948 323.401836,59.084814 L323.401836,59.084814 L323.401836,59.084814 C321.222582,64.3051333 317.6532,69.2542995 312.693689,73.9323127 L312.693689,73.9323127 L312.693689,73.9323127 C307.734179,78.6103259 301.271808,82.5424011 293.306577,85.7285382 L293.306577,85.7285382 L293.306577,85.7285382 C285.340991,88.9150316 275.57222,90.5082783 264.000267,90.5082783 L264.000267,90.5082783 L264.000267,90.5082783 C257.838397,90.5082783 252.315225,89.7286688 247.430751,88.1694499 L247.430751,88.1694499 L247.430751,88.1694499 C242.546277,86.6102309 238.225465,84.6441042 234.468314,82.2710699 L234.468314,82.2710699 L234.468314,82.2710699 C228.757729,79.2630885 224.587345,76.369305 221.957161,73.5897192 C223.9931,66.0398356 224.585211,60.7667823 223.733495,57.7705592 C223.54786,57.1179747 223.569731,55.4098176 223.247004,54.9731579 L222.248949,57.7502494 L218.236995,66.7116609 L218.236995,66.7116609 C215.531775,75.1184736 214.179165,84.9491068 214.179165,96.2035607 L214.179165,96.2035607 L214.179165,96.2035607 C214.179165,103.932313 215.419043,110.881455 217.898798,117.050988 L217.898798,117.050988 L217.898798,117.050988 C220.378553,123.220521 223.797685,128.47469 228.156193,132.813495 L228.156193,132.813495 L228.156193,132.813495 C232.514346,137.152299 237.699321,140.474369 243.711118,142.779704 L243.711118,142.779704 L243.711118,142.779704 C249.72256,145.084683 256.335181,146.237173 263.548982,146.237173 L263.548982,146.237173 L263.548982,146.237173 C272.5665,146.237173 280.456694,144.84738 287.219566,142.067794 L287.219566,142.067794 L287.219566,142.067794 C293.982793,139.288208 299.88168,135.796712 304.916227,131.593306 L304.916227,131.593306 L304.916227,131.593306 C309.950774,127.3899 314.309104,122.813613 317.991219,117.864447 L317.991219,117.864447 L317.991219,117.864447 C321.673333,112.915281 324.867001,108.372844 327.57222,104.237137 L327.57222,104.237137 L327.57222,104.237137 C330.27744,100.101786 332.644463,96.6781676 334.673289,93.9662811 L334.673289,93.9662811 L334.673289,93.9662811 C336.702115,91.2543945 338.693423,89.9661504 340.647212,90.1015488 L340.647212,90.1015488 L340.647212,90.1015488 C341.549071,90.1015488 342,90.7796095 342,92.1357309 L342,92.1357309 L342,92.1357309 C342,92.8134353 341.924786,93.4913179 341.774358,94.1693786 L341.774358,94.1693786 L341.774358,94.1693786 C341.624285,94.8474393 341.398998,95.5255 341.098497,96.2035607 Z M273.242538,20.5422467 L273.242538,20.5422467 L273.242538,20.5422467 C270.537674,20.5422467 267.043506,21.0507031 262.760034,22.067616 L262.760034,22.067616 L262.760034,22.067616 C258.476917,23.0848853 253.968336,24.8815858 249.23429,27.4577177 L249.23429,27.4577177 L249.23429,27.4577177 C244.500244,30.0338496 239.803717,33.5253456 235.144708,37.9322058 L235.144708,37.9322058 L235.144708,37.9322058 L224.479235,52.632726 L222.971219,54.7118034 C223.993277,55.0656207 224.656869,55.2956197 224.961993,55.4018006 C234.196796,58.6150173 241.235453,61.2665091 246.077963,63.3557414 L246.077963,63.3557414 L246.077963,63.3557414 C251.262938,65.593021 257.086611,66.7116609 263.548982,66.7116609 L263.548982,66.7116609 L263.548982,66.7116609 C268.65892,66.7116609 273.054947,65.9320514 276.737062,64.3728324 L276.737062,64.3728324 L276.737062,64.3728324 C280.419176,62.8136135 283.462593,60.8136372 285.867312,58.3729037 L285.867312,58.3729037 L285.867312,58.3729037 C288.271675,55.9321702 290,53.2541332 291.052287,50.3387928 L291.052287,50.3387928 L291.052287,50.3387928 C292.104218,47.4238087 292.630183,44.5424961 292.630183,41.6948549 L292.630183,41.6948549 L292.630183,41.6948549 C292.630183,35.5933774 290.901858,30.5424842 287.445209,26.5421754 L287.445209,26.5421754 L287.445209,26.5421754 C283.988559,22.5422229 279.254335,20.5422467 273.242538,20.5422467 Z" id="Shape"></path>
                <path d="M0,58.6736288 L0,58.6736288 L0,58.6736288 C0,57.838631 7.17918634,50.6713291 21.537559,37.1717228 L21.537559,37.1717228 L21.537559,37.1717228 C35.8959317,23.6721166 44.6190195,16.9223135 47.7068224,16.9223135 L47.7068224,16.9223135 L47.7068224,16.9223135 C50.7946253,16.9223135 52.3385268,22.4892627 52.3385268,33.623161 L52.3385268,33.623161 L52.3385268,33.623161 C52.3385268,56.1688141 55.6578703,79.8974997 62.2965574,104.809218 L62.2965574,104.809218 L62.2965574,104.809218 C68.9352444,129.720579 76.8862923,151.918197 86.149701,171.402073 L86.149701,171.402073 L86.149701,171.402073 C95.4131097,190.886306 104.985299,208.978578 114.866268,225.67889 L114.866268,225.67889 L114.866268,225.67889 C124.747594,242.379559 133.007601,255.252917 139.646288,264.298964 L139.646288,264.298964 L139.646288,264.298964 C146.284975,273.34501 150.221879,278.285533 151.457,279.120531 L151.457,279.120531 L151.457,279.120531 C162.882049,147.464816 183.724808,64.3798633 213.985276,29.8656712 L213.985276,29.8656712 L213.985276,29.8656712 C223.248685,19.5667706 232.975353,14.2782135 243.165281,14 L243.165281,14 L243.165281,14 C253.300624,16.4467791 259.912197,19.2010573 263,22.2628347 L255.670616,18.5926661 L255.670616,18.5926661 C252.651668,20.3480185 245.633918,26.8719294 234.617365,38.1643987 C218.092536,55.1031027 213.058935,69.9466339 199.163822,109.610276 L199.163822,109.610276 L199.163822,109.610276 C189.900414,136.052704 182.643988,164.791555 177.394544,195.826828 L177.394544,195.826828 L177.394544,195.826828 C172.145458,226.861744 169.520915,252.121318 169.520915,271.605551 L169.520915,271.605551 L171.836499,307.511703 L171.836499,307.511703 C158.250166,323.098804 149.063997,332.910206 144.277992,336.945909 L144.277992,336.945909 L144.277992,336.945909 C139.491987,340.98197 135.709384,343 132.930183,343 L132.930183,343 L132.930183,343 C127.989698,343 118.417509,332.562171 104.213616,311.686514 L104.213616,311.686514 L104.213616,311.686514 C90.0097222,290.810856 75.1882683,266.038423 59.7492537,237.369215 L59.7492537,237.369215 L59.7492537,237.369215 C44.3102392,208.700007 30.5694271,177.386521 18.5268174,143.428756 L18.5268174,143.428756 L18.5268174,143.428756 C6.48456448,109.470991 0.308958673,81.2192819 0,58.6736288 Z" id="Path"></path>
            </g>
        </g>
    </g>
</svg>