<?xml version="1.0" encoding="UTF-8"?>
<svg width="512px" height="512px" viewBox="0 0 512 512" version="1.1" xmlns="http://www.w3.org/2000/svg" xmlns:xlink="http://www.w3.org/1999/xlink">
    <!-- Generator: Sketch 55.2 (78181) - https://sketchapp.com -->
    <title>Crypto</title>
    <desc>Created with Sketch.</desc>
    <defs>
        <linearGradient x1="29.5167165%" y1="89.1987579%" x2="70.4832835%" y2="10.8012421%" id="linearGradient-1">
            <stop stop-color="#4CAF50" offset="18.46%"></stop>
            <stop stop-color="#9FB72E" offset="22.77%"></stop>
            <stop stop-color="#FFC107" offset="81.89%"></stop>
        </linearGradient>
        <linearGradient x1="-1.83945563%" y1="50%" x2="101.839456%" y2="50%" id="linearGradient-2">
            <stop stop-color="#FFC107" offset="18.11%"></stop>
            <stop stop-color="#9FB72E" offset="77.23%"></stop>
            <stop stop-color="#4CAF50" offset="81.54%"></stop>
        </linearGradient>
    </defs>
    <g id="Crypto" stroke="none" stroke-width="1" fill="none" fill-rule="evenodd">
        <g id="crypto-logo" transform="translate(37.000000, 14.000000)" fill-rule="nonzero">
            <path d="M0,156.225 L0,326.825 C0,352.125 13.5,375.525 35.5,388.225 L183.1,473.525 C205,486.225 232.1,486.225 254,473.525 L401.7,388.225 C423.6,375.525 437.2,352.125 437.2,326.825 L437.2,156.225 C437.2,130.925 423.7,107.525 401.7,94.825 L254.1,9.525 C232.2,-3.175 205.1,-3.175 183.2,9.525 L35.4,94.825 C13.5,107.525 0,130.925 0,156.225 Z" id="Path" stroke="url(#linearGradient-2)" stroke-width="16" fill="url(#linearGradient-1)"></path>
            <g id="Group" transform="translate(75.000000, 97.000000)" fill="#FFFFFF">
                <path d="M287.242969,81.2385624 L287.242969,81.2385624 L287.242969,81.2385624 C287.242969,82.498068 287.30598,83.9865473 287.432003,85.7040002 L287.432003,85.7040002 L287.432003,85.7040002 C287.558324,87.4214531 287.621484,89.3678797 287.621484,91.54328 L287.621484,91.54328 L287.621484,91.54328 C287.621484,94.2915657 287.179808,97.6980379 286.296456,101.762697 L286.296456,101.762697 L286.296456,101.762697 C285.412805,105.827355 283.99296,110.092554 282.036923,114.558293 L282.036923,114.558293 L282.036923,114.558293 C280.080587,119.02373 277.461886,123.489168 274.18082,127.954606 L274.18082,127.954606 L274.18082,127.954606 C270.899456,132.420345 266.860911,136.427985 262.065185,139.977529 L262.065185,139.977529 L262.065185,139.977529 C257.269459,143.526771 251.621737,146.417827 245.12202,148.650696 L245.12202,148.650696 L245.12202,148.650696 C238.6226,150.883565 231.208174,152 222.87874,152 L222.87874,152 L222.87874,152 C215.432658,152 207.82875,150.71176 200.067014,148.13528 L200.067014,148.13528 L200.067014,148.13528 C192.305578,145.5591 185.238161,141.55161 178.864764,136.112808 L178.864764,136.112808 L178.864764,136.112808 C172.491666,130.674007 167.254264,123.746726 163.152559,115.330966 L163.152559,115.330966 L163.152559,115.330966 C159.050853,106.915206 157,96.8677451 157,85.1885838 L157,85.1885838 L157,85.1885838 C157,77.8605239 158.041179,70.6469508 160.123538,63.5478645 L160.123538,63.5478645 L160.123538,63.5478645 C162.205896,56.4487782 164.982424,49.7504711 168.453121,43.4529431 L168.453121,43.4529431 L168.453121,43.4529431 C171.923818,37.1554151 176.025375,31.344569 180.75779,26.0204048 L180.75779,26.0204048 L180.75779,26.0204048 C185.490505,20.6959396 190.475563,16.1158646 195.712965,12.2801796 L195.712965,12.2801796 L195.712965,12.2801796 C200.950665,8.44449459 206.377549,5.43880153 211.993616,3.26310038 L211.993616,3.26310038 L211.993616,3.26310038 C217.609683,1.08770013 223.067923,0 228.368336,0 L228.368336,0 L228.368336,0 C237.581421,0 245.185329,1.31682424 251.180061,3.95047271 L251.180061,3.95047271 L251.180061,3.95047271 C257.174793,6.58382029 261.939013,9.84707112 265.472721,13.7402252 L265.472721,13.7402252 L265.472721,13.7402252 C269.00643,17.6330784 271.498959,21.7836398 272.950309,26.1919094 L272.950309,26.1919094 L272.950309,26.1919094 C274.401658,30.6001789 275.127333,34.5790853 275.127333,38.1286284 L275.127333,38.1286284 L275.127333,38.1286284 C275.127333,41.5638352 274.212326,45.4855733 272.382311,49.8938429 L272.382311,49.8938429 L272.382311,49.8938429 C270.552296,54.3021125 267.554931,58.4814085 263.390214,62.4317307 L263.390214,62.4317307 L263.390214,62.4317307 C259.225497,66.382053 253.798762,69.702472 247.11001,72.3929878 L247.11001,72.3929878 L247.11001,72.3929878 C240.42096,75.0838045 232.217698,76.4292128 222.500224,76.4292128 L222.500224,76.4292128 L222.500224,76.4292128 C217.325833,76.4292128 212.687785,75.7708759 208.586079,74.4542021 L208.586079,74.4542021 L208.586079,74.4542021 C204.484374,73.1375283 200.855999,71.4772436 197.700956,69.4733479 L197.700956,69.4733479 L197.700956,69.4733479 C192.905529,66.9332747 189.403475,64.4896353 187.194796,62.1424296 C188.904462,55.7669723 189.401684,51.3141717 188.686461,48.7840277 C188.530575,48.2329564 188.548941,46.7905126 188.277933,46.4217778 L187.439823,48.7668773 L184.07081,56.3342914 L184.07081,56.3342914 C181.799119,63.4333777 180.663273,71.7348013 180.663273,81.2385624 L180.663273,81.2385624 L180.663273,81.2385624 C180.663273,87.7650641 181.704453,93.6332288 183.786811,98.8430567 L183.786811,98.8430567 L183.786811,98.8430567 C185.86917,104.052885 188.740364,108.489738 192.400393,112.153618 L192.400393,112.153618 L192.400393,112.153618 C196.060124,115.817497 200.414174,118.622801 205.462542,120.569528 L205.462542,120.569528 L205.462542,120.569528 C210.510611,122.515955 216.063517,123.489168 222.12126,123.489168 L222.12126,123.489168 L222.12126,123.489168 C229.693663,123.489168 236.319404,122.315565 241.998482,119.96836 L241.998482,119.96836 L241.998482,119.96836 C247.677859,117.621154 252.631411,114.672779 256.859139,111.123236 L256.859139,111.123236 L256.859139,111.123236 C261.086868,107.573693 264.746748,103.709274 267.83878,99.5299777 L267.83878,99.5299777 L267.83878,99.5299777 C270.930812,95.3506817 273.612674,91.5148463 275.884365,88.0224714 L275.884365,88.0224714 L275.884365,88.0224714 C278.156056,84.5303973 280.143748,81.6393415 281.847441,79.349304 L281.847441,79.349304 L281.847441,79.349304 C283.551135,77.0592665 285.223323,75.9714159 286.864005,76.0857523 L286.864005,76.0857523 L286.864005,76.0857523 C287.621335,76.0857523 288,76.6583369 288,77.8035061 L288,77.8035061 L288,77.8035061 C288,78.3757898 287.936839,78.948224 287.810518,79.5208086 L287.810518,79.5208086 L287.810518,79.5208086 C287.684496,80.0933932 287.495313,80.6659778 287.242969,81.2385624 Z M230.261362,17.3467861 L230.261362,17.3467861 L230.261362,17.3467861 C227.98997,17.3467861 225.055764,17.7761493 221.458746,18.6348758 L221.458746,18.6348758 L221.458746,18.6348758 C217.862026,19.4939031 214.075974,21.0111169 210.10059,23.1865172 L210.10059,23.1865172 L210.10059,23.1865172 C206.125205,25.3619174 202.181326,28.3102919 198.268953,32.0316405 L198.268953,32.0316405 L198.268953,32.0316405 L189.312691,44.4454131 L188.046344,46.2010784 C188.904611,46.4998575 189.461858,46.6940789 189.718084,46.7837427 C197.47295,49.4971258 203.383617,51.7361632 207.450085,53.5004038 L207.450085,53.5004038 L207.450085,53.5004038 C211.804134,55.3896622 216.694526,56.3342914 222.12126,56.3342914 L222.12126,56.3342914 L222.12126,56.3342914 C226.412299,56.3342914 230.103834,55.6759545 233.195866,54.3592807 L233.195866,54.3592807 L233.195866,54.3592807 C236.287898,53.0426069 238.843588,51.3537381 240.862935,49.2926742 L240.862935,49.2926742 L240.862935,49.2926742 C242.881984,47.2316104 244.333333,44.9701569 245.216984,42.5083139 L245.216984,42.5083139 L245.216984,42.5083139 C246.100337,40.0467718 246.542013,37.6136634 246.542013,35.2089886 L246.542013,35.2089886 L246.542013,35.2089886 C246.542013,30.0566298 245.090663,25.7914311 242.187964,22.4133926 L242.187964,22.4133926 L242.187964,22.4133926 C239.285264,19.0356549 235.30973,17.3467861 230.261362,17.3467861 Z" id="Shape"></path>
                <path d="M0,49.6127513 L0,49.6127513 L0,49.6127513 C0,48.9097289 6.03270031,42.8752527 18.0981009,31.5093229 L18.0981009,31.5093229 L18.0981009,31.5093229 C30.1635016,20.143393 37.4935487,14.4604281 40.0882424,14.4604281 L40.0882424,14.4604281 L40.0882424,14.4604281 C42.6829361,14.4604281 43.980283,19.1474947 43.980283,28.521628 L43.980283,28.521628 L43.980283,28.521628 C43.980283,47.5038344 46.7695412,67.4820894 52.3480577,88.4563931 L52.3480577,88.4563931 L52.3480577,88.4563931 C57.9265742,109.430396 64.607873,128.119576 72.3919541,144.523934 L72.3919541,144.523934 L72.3919541,144.523934 C80.1760351,160.928592 88.2195856,176.161295 96.5226054,190.222044 L96.5226054,190.222044 L96.5226054,190.222044 C104.825925,204.283094 111.766843,215.121757 117.34536,222.738033 L117.34536,222.738033 L117.34536,222.738033 C122.923876,230.35431 126.232073,234.513959 127.269951,235.216982 L127.269951,235.216982 L127.269951,235.216982 C136.870467,124.370073 154.384724,54.4170885 179.812723,25.3580271 L179.812723,25.3580271 L179.812723,25.3580271 C187.596804,16.6869163 195.770164,12.2342406 204.332803,12 L204.332803,12 L204.332803,12 C212.849574,14.0600541 218.405306,16.3790057 221,18.9568548 L214.841088,15.8667736 L214.841088,15.8667736 C212.304254,17.3446843 206.407209,22.8374603 197.149953,32.3451016 C183.26407,46.6065637 179.034315,59.1040048 167.358193,92.4986216 L167.358193,92.4986216 L167.358193,92.4986216 C159.574112,114.7617 153.476507,138.958239 149.065378,165.088241 L149.065378,165.088241 L149.065378,165.088241 C144.654548,191.217942 142.449133,212.485122 142.449133,228.88978 L142.449133,228.88978 L144.394929,259.120796 L144.394929,259.120796 C132.978277,272.244282 125.2591,280.504945 121.2374,283.902787 L121.2374,283.902787 L121.2374,283.902787 C117.2157,287.300929 114.037163,289 111.701788,289 L111.701788,289 L111.701788,289 C107.550278,289 99.506728,280.211919 87.571137,262.635758 L87.571137,262.635758 L87.571137,262.635758 C75.635546,245.059596 63.1810163,224.202563 50.2075478,200.064658 L50.2075478,200.064658 L50.2075478,200.064658 C37.2340794,175.926754 25.6876175,149.562511 15.5681622,120.971931 L15.5681622,120.971931 L15.5681622,120.971931 C5.44900665,92.381351 0.259619265,68.5949577 0,49.6127513 Z" id="Path"></path>
            </g>
        </g>
    </g>
</svg>