<?xml version="1.0" encoding="UTF-8"?>
<svg width="512px" height="512px" viewBox="0 0 512 512" version="1.1" xmlns="http://www.w3.org/2000/svg" xmlns:xlink="http://www.w3.org/1999/xlink">
    <!-- Generator: Sketch 55.2 (78181) - https://sketchapp.com -->
    <title>Cloud</title>
    <desc>Created with Sketch.</desc>
    <g id="Cloud" stroke="none" stroke-width="1" fill="none" fill-rule="evenodd">
        <g id="hosting-logo" transform="translate(7.000000, 70.000000)" fill-rule="nonzero">
            <circle id="Oval" fill="#FF9800" cx="107.5" cy="264.5" r="107.5"></circle>
            <path d="M419.5,372 L217.5,372 C174.3,372 139,336.7 139,293.5 L139,293.5 C139,250.3 174.3,215 217.5,215 L419.5,215 C462.7,215 498,250.3 498,293.5 L498,293.5 C498,336.7 462.7,372 419.5,372 Z" id="Path" fill="#FF9800"></path>
            <circle id="Oval" fill="#03A9F4" cx="268" cy="185.5" r="185.5"></circle>
            <g id="Group" transform="translate(160.000000, 78.000000)" fill="#FFFFFF">
                <path d="M215.427892,60.9289218 L215.427892,60.9289218 L215.427892,60.9289218 C215.427892,61.873551 215.475512,62.9899104 215.57075,64.2780001 L215.57075,64.2780001 L215.57075,64.2780001 C215.666214,65.5660898 215.713946,67.0259098 215.713946,68.65746 L215.713946,68.65746 L215.713946,68.65746 C215.713946,70.7186743 215.38016,73.2735284 214.712589,76.3220224 L214.712589,76.3220224 L214.712589,76.3220224 C214.044791,79.3705164 212.971779,82.5694154 211.493553,85.9187194 L211.493553,85.9187194 L211.493553,85.9187194 C210.0151,89.2677978 208.036082,92.6168761 205.556498,95.9659544 L205.556498,95.9659544 L205.556498,95.9659544 C203.076688,99.3152584 200.024658,102.320989 196.400407,104.983146 L196.400407,104.983146 L196.400407,104.983146 C192.776156,107.645078 188.508031,109.81337 183.59603,111.488022 L183.59603,111.488022 L183.59603,111.488022 C178.684255,113.162674 173.080986,114 166.786223,114 L166.786223,114 L166.786223,114 C161.159032,114 155.412566,113.03382 149.546828,111.10146 L149.546828,111.10146 L149.546828,111.10146 C143.681314,109.169325 138.34029,106.163707 133.523753,102.084606 L133.523753,102.084606 L133.523753,102.084606 C128.707442,98.005505 124.749406,92.8100444 121.649644,86.4982244 L121.649644,86.4982244 L121.649644,86.4982244 C118.549881,80.1864043 117,72.6508088 117,63.8914378 L117,63.8914378 L117,63.8914378 C117,58.3953929 117.786845,52.9852131 119.360536,47.6608984 L119.360536,47.6608984 L119.360536,47.6608984 C120.934227,42.3365837 123.032519,37.3128533 125.655412,32.5897073 L125.655412,32.5897073 L125.655412,32.5897073 C128.278305,27.8665614 131.377955,23.5084268 134.954361,19.5153036 L134.954361,19.5153036 L134.954361,19.5153036 C138.530992,15.5219547 142.298326,12.0868984 146.256363,9.21013469 L146.256363,9.21013469 L146.256363,9.21013469 C150.214625,6.33337094 154.315858,4.07910114 158.560061,2.44732529 L158.560061,2.44732529 L158.560061,2.44732529 C162.804264,0.815775096 166.929194,0 170.934849,0 L170.934849,0 L170.934849,0 C177.89741,0 183.643875,0.987618177 188.174245,2.96285453 L188.174245,2.96285453 L188.174245,2.96285453 C192.704615,4.93786522 196.305056,7.38530334 198.975568,10.3051689 L198.975568,10.3051689 L198.975568,10.3051689 C201.64608,13.2248088 203.529747,16.3377298 204.626569,19.643932 L204.626569,19.643932 L204.626569,19.643932 C205.723391,22.9501342 206.271802,25.934314 206.271802,28.5964713 L206.271802,28.5964713 L206.271802,28.5964713 C206.271802,31.1728764 205.580307,34.11418 204.197319,37.4203822 L204.197319,37.4203822 L204.197319,37.4203822 C202.814331,40.7265844 200.549146,43.8610563 197.401764,46.823798 L197.401764,46.823798 L197.401764,46.823798 C194.254383,49.7865397 190.153263,52.276854 185.098405,54.2947408 L185.098405,54.2947408 L185.098405,54.2947408 C180.043321,56.3128533 173.843909,57.3219096 166.500169,57.3219096 L166.500169,57.3219096 L166.500169,57.3219096 C162.589752,57.3219096 159.084662,56.8281569 155.9849,55.8406516 L155.9849,55.8406516 L155.9849,55.8406516 C152.885137,54.8531462 150.143083,53.6079327 147.758738,52.1050109 L147.758738,52.1050109 L147.758738,52.1050109 C144.134713,50.1999561 141.488123,48.3672265 139.818968,46.6068222 C141.111005,41.8252292 141.486768,38.4856288 140.946257,36.5880208 C140.82845,36.1747173 140.842329,35.0928845 140.637522,34.8163333 L140.004141,36.575158 L137.458093,42.2507186 L137.458093,42.2507186 C135.741319,47.5750333 134.882932,53.801101 134.882932,60.9289218 L134.882932,60.9289218 L134.882932,60.9289218 C134.882932,65.823798 135.669777,70.2249216 137.243468,74.1322925 L137.243468,74.1322925 L137.243468,74.1322925 C138.817159,78.0396634 140.986992,81.3673037 143.752969,84.1152133 L143.752969,84.1152133 L143.752969,84.1152133 C146.51872,86.863123 149.809185,88.9671006 153.624364,90.4271462 L153.624364,90.4271462 L153.624364,90.4271462 C157.439317,91.8869661 161.635788,92.6168761 166.213777,92.6168761 L166.213777,92.6168761 L166.213777,92.6168761 C171.936432,92.6168761 176.943671,91.736674 181.235494,89.9762697 L181.235494,89.9762697 L181.235494,89.9762697 C185.527542,88.2158654 189.271066,86.0045845 192.466067,83.3424272 L192.466067,83.3424272 L192.466067,83.3424272 C195.661068,80.6802698 198.426932,77.7819552 200.763658,74.6474833 L200.763658,74.6474833 L200.763658,74.6474833 C203.100385,71.5130113 205.127135,68.6361347 206.843909,66.0168535 L206.843909,66.0168535 L206.843909,66.0168535 C208.560683,63.397798 210.062832,61.2295062 211.350356,59.511978 L211.350356,59.511978 L211.350356,59.511978 C212.637881,57.7944499 213.901595,56.9785619 215.1415,57.0643142 L215.1415,57.0643142 L215.1415,57.0643142 C215.713833,57.0643142 216,57.4937527 216,58.3526296 L216,58.3526296 L216,58.3526296 C216,58.7818424 215.952268,59.211168 215.856804,59.6406064 L215.856804,59.6406064 L215.856804,59.6406064 C215.761565,60.0700449 215.618595,60.4994833 215.427892,60.9289218 Z M172.365457,13.0100896 L172.365457,13.0100896 L172.365457,13.0100896 C170.648908,13.0100896 168.431455,13.332112 165.713098,13.9761568 L165.713098,13.9761568 L165.713098,13.9761568 C162.994967,14.6204273 160.133752,15.7583377 157.129453,17.3898879 L157.129453,17.3898879 L157.129453,17.3898879 C154.125155,19.0214381 151.144667,21.2327189 148.187987,24.0237303 L148.187987,24.0237303 L148.187987,24.0237303 L141.419515,33.3340598 L140.462504,34.6508088 C141.111118,34.8748931 141.532244,35.0205592 141.72588,35.087807 C147.586428,37.1228443 152.053268,38.8021224 155.1264,40.1253029 L155.1264,40.1253029 L155.1264,40.1253029 C158.416865,41.5422467 162.112657,42.2507186 166.213777,42.2507186 L166.213777,42.2507186 L166.213777,42.2507186 C169.456623,42.2507186 172.246409,41.7569659 174.583135,40.7694605 L174.583135,40.7694605 L174.583135,40.7694605 C176.919862,39.7819552 178.851261,38.5153036 180.377332,36.9695057 L180.377332,36.9695057 L180.377332,36.9695057 C181.903178,35.4237078 183,33.7276177 183.667797,31.8812355 L183.667797,31.8812355 L183.667797,31.8812355 C184.335369,30.0350789 184.669155,28.2102475 184.669155,26.4067414 L184.669155,26.4067414 L184.669155,26.4067414 C184.669155,22.5424723 183.572333,19.3435733 181.37869,16.8100444 L181.37869,16.8100444 L181.37869,16.8100444 C179.185047,14.2767412 176.180636,13.0100896 172.365457,13.0100896 Z" id="Shape"></path>
                <path d="M0,37.24351 L0,37.24351 L0,37.24351 C0,36.7156087 4.53134956,32.1843053 13.5940487,23.6495998 L13.5940487,23.6495998 L13.5940487,23.6495998 C22.6567478,15.1148944 28.1625751,10.8475417 30.1115305,10.8475417 L30.1115305,10.8475417 L30.1115305,10.8475417 C32.0604859,10.8475417 33.0349637,14.3670718 33.0349637,21.4061322 L33.0349637,21.4061322 L33.0349637,21.4061322 C33.0349637,35.659919 35.1300626,50.6616412 39.3202605,66.4112988 L39.3202605,66.4112988 L39.3202605,66.4112988 C43.5104584,82.1607307 48.5289906,96.1944833 54.3758569,108.512557 L54.3758569,108.512557 L54.3758569,108.512557 C60.2227232,120.830856 66.2644851,132.269131 72.5011425,142.827383 L72.5011425,142.827383 L72.5011425,142.827383 C78.7380251,153.385861 83.9515654,161.52464 88.1417633,167.243722 L88.1417633,167.243722 L88.1417633,167.243722 C92.3319612,172.962803 94.8168513,176.086294 95.5964334,176.614196 L95.5964334,176.614196 L95.5964334,176.614196 C102.807681,93.3789721 115.963187,40.851099 135.06295,19.0305763 L135.06295,19.0305763 L135.06295,19.0305763 C140.909816,12.5194173 147.049082,9.17589184 153.480748,9 L153.480748,9 L153.480748,9 C159.877961,10.5468998 164.051045,12.2882064 166,14.2239198 L161.373849,11.9035701 L161.373849,11.9035701 C159.468353,13.0133369 155.038899,17.1378763 148.085485,24.2771882 C137.655365,34.9861561 134.478263,44.3705163 125.707964,69.4466184 L125.707964,69.4466184 L125.707964,69.4466184 C119.861098,86.1640199 115.280996,104.333263 111.967659,123.954347 L111.967659,123.954347 L111.967659,123.954347 C108.654548,143.575206 106.997992,159.544785 106.997992,171.863084 L106.997992,171.863084 L108.459539,194.56363 L108.459539,194.56363 C99.8841354,204.418089 94.0860211,210.621042 91.0651965,213.17249 L91.0651965,213.17249 L91.0651965,213.17249 C88.0443718,215.724163 85.6568733,217 83.9027008,217 L83.9027008,217 L83.9027008,217 C80.7843721,217 74.7426102,210.401008 65.7774151,197.203024 L65.7774151,197.203024 L65.7774151,197.203024 C56.8122201,184.00504 47.457234,168.343441 37.7124567,150.218227 L37.7124567,150.218227 L37.7124567,150.218227 C27.9676795,132.093014 19.2947715,112.296038 11.6937327,90.8272986 L11.6937327,90.8272986 L11.6937327,90.8272986 C4.09291902,69.3585596 0.195008136,51.4972967 0,37.24351 Z" id="Path"></path>
            </g>
        </g>
    </g>
</svg>