<?xml version="1.0" encoding="UTF-8" standalone="no"?>
<!DOCTYPE svg PUBLIC "-//W3C//DTD SVG 1.1//EN" "http://www.w3.org/Graphics/SVG/1.1/DTD/svg11.dtd">
<svg width="100%" height="100%" viewBox="0 0 512 512" version="1.1" xmlns="http://www.w3.org/2000/svg" xmlns:xlink="http://www.w3.org/1999/xlink" xml:space="preserve" xmlns:serif="http://www.serif.com/" style="fill-rule:evenodd;clip-rule:evenodd;stroke-linejoin:round;stroke-miterlimit:2;">
    <g>
        <g transform="matrix(1.22488,0,0,1.22488,-69.8182,-47.7703)">
            <circle cx="266" cy="248" r="209" style="fill:url(#_Linear1);"/>
        </g>
        <g transform="matrix(528.376,0,0,528.376,94.5813,385.98)">
            <path d="M0.16,-0.08C0.16,-0.068 0.17,-0.057 0.183,-0.057C0.205,-0.057 0.206,-0.083 0.206,-0.088C0.206,-0.122 0.185,-0.155 0.134,-0.155C0.07,-0.155 0.02,-0.101 0.02,-0.025C0.02,0.061 0.092,0.129 0.198,0.129C0.347,0.129 0.431,0.017 0.431,-0.127C0.431,-0.238 0.421,-0.273 0.421,-0.366C0.421,-0.41 0.428,-0.452 0.445,-0.481C0.459,-0.478 0.477,-0.476 0.492,-0.476C0.551,-0.476 0.591,-0.505 0.591,-0.547C0.591,-0.581 0.573,-0.604 0.529,-0.604C0.481,-0.604 0.444,-0.572 0.421,-0.53C0.384,-0.546 0.352,-0.559 0.325,-0.572C0.27,-0.599 0.215,-0.621 0.157,-0.621C0.077,-0.621 0.036,-0.568 0.036,-0.515C0.036,-0.475 0.064,-0.438 0.084,-0.438C0.095,-0.438 0.105,-0.448 0.105,-0.46C0.105,-0.466 0.102,-0.473 0.098,-0.477C0.086,-0.487 0.08,-0.501 0.08,-0.515C0.08,-0.551 0.103,-0.58 0.157,-0.58C0.212,-0.58 0.256,-0.558 0.306,-0.535C0.33,-0.524 0.37,-0.506 0.403,-0.492C0.385,-0.463 0.376,-0.418 0.376,-0.368C0.376,-0.264 0.386,-0.234 0.386,-0.123C0.386,0.012 0.304,0.088 0.196,0.088C0.124,0.088 0.064,0.039 0.064,-0.027C0.064,-0.076 0.093,-0.115 0.131,-0.115C0.152,-0.115 0.162,-0.1 0.161,-0.088L0.16,-0.08ZM0.526,-0.564C0.538,-0.564 0.546,-0.557 0.546,-0.546C0.546,-0.527 0.527,-0.516 0.492,-0.516C0.483,-0.516 0.474,-0.518 0.465,-0.519C0.48,-0.545 0.502,-0.564 0.526,-0.564Z" style="fill:white;fill-rule:nonzero;"/>
        </g>
    </g>
    <defs>
        <linearGradient id="_Linear1" x1="0" y1="0" x2="1" y2="0" gradientUnits="userSpaceOnUse" gradientTransform="matrix(251.453,344.523,-344.523,251.453,142.723,67.5742)"><stop offset="0" style="stop-color:rgb(255,112,67);stop-opacity:1"/><stop offset="1" style="stop-color:rgb(236,64,122);stop-opacity:1"/></linearGradient>
    </defs>
</svg>
