<?xml version="1.0" encoding="UTF-8"?>
<svg width="512px" height="512px" viewBox="0 0 512 512" version="1.1" xmlns="http://www.w3.org/2000/svg" xmlns:xlink="http://www.w3.org/1999/xlink">
    <!-- Generator: Sketch 64 (93537) - https://sketch.com -->
    <title>Video</title>
    <desc>Created with Sketch.</desc>
    <defs>
        <linearGradient x1="6.40016693%" y1="29.2869349%" x2="91.3802644%" y2="72.9317107%" id="linearGradient-1">
            <stop stop-color="#8C9EFF" offset="0%"></stop>
            <stop stop-color="#F8BBD0" offset="100%"></stop>
        </linearGradient>
    </defs>
    <g id="Video" stroke="none" stroke-width="1" fill="none" fill-rule="evenodd">
        <path d="M399.710145,94 L111.614224,94 C92.7455865,94 75.3462189,101.00986 62.0646725,112.698651 C48.783126,124.387441 39.6194008,140.755162 37.2220477,159.470882 C33.0747377,191.848216 31,223.929175 31,255.713896 C31,285.995255 32.8831375,315.917742 36.6506961,345.481273 C39.0371732,364.207642 48.1978345,380.587323 61.4813319,392.285413 C74.7648294,403.983502 92.171163,411 111.048985,411 L399.802514,411 C418.376817,411 435.55175,404.201376 448.768082,392.809974 C461.984415,381.418572 471.242148,365.434393 473.982051,347.063283 C478.660281,315.695656 481,284.327634 481,252.959128 C481,221.38246 478.629139,189.707537 473.88931,157.934221 C471.148859,139.563676 461.89098,123.58012 448.674757,112.189201 C435.458534,100.798283 418.283969,93.9999999 399.710145,94 Z" id="Rectangle" stroke="url(#linearGradient-1)" stroke-width="20" fill="#E91E63"></path>
        <g id="Group" transform="translate(157.000000, 153.000000)" fill="#FFFFFF" fill-rule="nonzero">
            <path d="M197.479902,55.5842795 L197.479902,55.5842795 L197.479902,55.5842795 C197.479902,56.4460465 197.523192,57.4644797 197.609773,58.6395791 L197.609773,58.6395791 L197.609773,58.6395791 C197.696558,59.8146784 197.739951,61.146444 197.739951,62.6348758 L197.739951,62.6348758 L197.739951,62.6348758 C197.739951,64.5152818 197.436509,66.8460259 196.829626,69.6271082 L196.829626,69.6271082 L196.829626,69.6271082 C196.222538,72.4081904 195.247072,75.3264842 193.90323,78.3819896 L193.90323,78.3819896 L193.90323,78.3819896 C192.559182,81.4372892 190.760075,84.4925887 188.505907,87.5478883 L188.505907,87.5478883 L188.505907,87.5478883 C186.251534,90.6033937 183.476961,93.3454638 180.182188,95.7740985 L180.182188,95.7740985 L180.182188,95.7740985 C176.887415,98.2025274 173.007301,100.180618 168.541845,101.708371 L168.541845,101.708371 L168.541845,101.708371 C164.076596,103.236124 158.982715,104 153.260203,104 L153.260203,104 L153.260203,104 C148.144574,104 142.920515,103.118573 137.588025,101.355718 L137.588025,101.355718 L137.588025,101.355718 C132.25574,99.5930686 127.400263,96.8511014 123.021594,93.1298161 L123.021594,93.1298161 L123.021594,93.1298161 C118.643129,89.4085309 115.044914,84.6688125 112.226949,78.9106608 L112.226949,78.9106608 L112.226949,78.9106608 C109.408983,73.1525092 108,66.2779309 108,58.2869257 L108,58.2869257 L108,58.2869257 C108,53.27299 108.715314,48.3373874 110.145942,43.4801178 L110.145942,43.4801178 L110.145942,43.4801178 C111.57657,38.6228483 113.484108,34.039796 115.868556,29.7309611 L115.868556,29.7309611 L115.868556,29.7309611 C118.253005,25.4221262 121.070868,21.4462841 124.322146,17.8034348 L124.322146,17.8034348 L124.322146,17.8034348 C127.573629,14.1603797 130.998478,11.0266442 134.596693,8.40222813 L134.596693,8.40222813 L134.596693,8.40222813 C138.195114,5.77781209 141.923507,3.72128526 145.781874,2.23264763 L145.781874,2.23264763 L145.781874,2.23264763 C149.64024,0.744215877 153.390176,0 157.031681,0 L157.031681,0 L157.031681,0 C163.361282,0 168.585341,0.900985003 172.703859,2.70295501 L172.703859,2.70295501 L172.703859,2.70295501 C176.822377,4.50471915 180.095505,6.73746971 182.523244,9.40120671 L182.523244,9.40120671 L182.523244,9.40120671 C184.950982,12.0647378 186.663407,14.9045956 187.660517,17.9207801 L187.660517,17.9207801 L187.660517,17.9207801 C188.657628,20.9369645 189.156183,23.6593742 189.156183,26.0880089 L189.156183,26.0880089 L189.156183,26.0880089 C189.156183,28.4384135 188.527552,31.1217081 187.27029,34.1378925 L187.27029,34.1378925 L187.27029,34.1378925 C186.013028,37.154077 183.953769,40.0135953 181.092513,42.7164473 L181.092513,42.7164473 L181.092513,42.7164473 C178.231257,45.4192994 174.502966,47.6911651 169.907641,49.5320443 L169.907641,49.5320443 L169.907641,49.5320443 C165.31211,51.3731294 159.676281,52.2936719 153.000154,52.2936719 L153.000154,52.2936719 L153.000154,52.2936719 C149.445229,52.2936719 146.258784,51.8432309 143.440818,50.9423488 L143.440818,50.9423488 L143.440818,50.9423488 C140.622852,50.0414667 138.130076,48.9054824 135.962489,47.5343959 L135.962489,47.5343959 L135.962489,47.5343959 C132.66792,45.7964511 130.26193,44.1244873 128.744516,42.5185044 C129.919096,38.1563495 130.260699,35.1096964 129.769324,33.3785453 C129.662227,33.0014965 129.674845,32.0145613 129.488656,31.762269 L128.912855,33.3668108 L126.598266,38.5445152 L126.598266,38.5445152 C125.037563,43.4017847 124.257211,49.0817062 124.257211,55.5842795 L124.257211,55.5842795 L124.257211,55.5842795 C124.257211,60.0497807 124.972525,64.0648408 126.403153,67.6294598 L126.403153,67.6294598 L126.403153,67.6294598 C127.833781,71.1940789 129.806357,74.2298209 132.320881,76.7366858 L132.320881,76.7366858 L132.320881,76.7366858 C134.8352,79.2435508 137.826531,81.1629689 141.294876,82.4949404 L141.294876,82.4949404 L141.294876,82.4949404 C144.763015,83.8267059 148.577989,84.4925887 152.739797,84.4925887 L152.739797,84.4925887 L152.739797,84.4925887 C157.942211,84.4925887 162.494247,83.6895973 166.395904,82.0836144 L166.395904,82.0836144 L166.395904,82.0836144 C170.297765,80.4776316 173.700969,78.4603227 176.605516,76.031688 L176.605516,76.031688 L176.605516,76.031688 C179.510062,73.6030532 182.024483,70.9589767 184.14878,68.0994584 L184.14878,68.0994584 L184.14878,68.0994584 C186.273077,65.2399401 188.115577,62.6154212 189.676281,60.2259015 L189.676281,60.2259015 L189.676281,60.2259015 C191.236985,57.8365876 192.602575,55.8584968 193.773051,54.2916291 L193.773051,54.2916291 L193.773051,54.2916291 C194.943528,52.7247613 196.092359,51.9804425 197.219546,52.0586726 L197.219546,52.0586726 L197.219546,52.0586726 C197.739849,52.0586726 198,52.450441 198,53.2339779 L198,53.2339779 L198,53.2339779 C198,53.6255404 197.956607,54.0172059 197.869822,54.4089743 L197.869822,54.4089743 L197.869822,54.4089743 C197.783241,54.8007427 197.653268,55.1925111 197.479902,55.5842795 Z M158.332233,11.8688536 L158.332233,11.8688536 L158.332233,11.8688536 C156.771735,11.8688536 154.755869,12.1626285 152.284635,12.7501782 L152.284635,12.7501782 L152.284635,12.7501782 C149.813606,13.3379337 147.212501,14.3760274 144.481321,15.8644591 L144.481321,15.8644591 L144.481321,15.8644591 C141.750141,17.3528909 139.040606,19.3701997 136.352716,21.9163856 L136.352716,21.9163856 L136.352716,21.9163856 L130.199559,30.4100195 L129.329549,31.6112642 C129.919198,31.815692 130.30204,31.9485803 130.478073,32.0099292 C135.805844,33.8664545 139.866607,35.3984275 142.660363,36.6055395 L142.660363,36.6055395 L142.660363,36.6055395 C145.651695,37.8981899 149.011506,38.5445152 152.739797,38.5445152 L152.739797,38.5445152 L152.739797,38.5445152 C155.687839,38.5445152 158.224008,38.0940741 160.348305,37.1931921 L160.348305,37.1931921 L160.348305,37.1931921 C162.472602,36.29231 164.228419,35.1367682 165.615757,33.7265666 L165.615757,33.7265666 L165.615757,33.7265666 C167.002889,32.316365 168,30.7690547 168.607089,29.0846358 L168.607089,29.0846358 L168.607089,29.0846358 C169.213972,27.4004228 169.517414,25.7356644 169.517414,24.0903606 L169.517414,24.0903606 L169.517414,24.0903606 C169.517414,20.5650625 168.520303,17.6467687 166.526082,15.3354791 L166.526082,15.3354791 L166.526082,15.3354791 C164.531861,13.0243955 161.800578,11.8688536 158.332233,11.8688536 Z" id="Shape"></path>
            <path d="M0,33.9351462 L0,33.9351462 L0,33.9351462 C0,33.4503907 4.14918755,29.2894342 12.4475626,21.4522768 L12.4475626,21.4522768 L12.4475626,21.4522768 C20.7459377,13.6151194 25.7874181,9.69654066 27.5720038,9.69654066 L27.5720038,9.69654066 L27.5720038,9.69654066 C29.3565895,9.69654066 30.2488824,12.9284169 30.2488824,19.3921695 L30.2488824,19.3921695 L30.2488824,19.3921695 C30.2488824,32.4809833 32.1672863,46.2566032 36.004094,60.7190292 L36.004094,60.7190292 L36.004094,60.7190292 C39.8409017,75.1812479 44.4361841,88.0680111 49.7899413,99.3793189 L49.7899413,99.3793189 L49.7899413,99.3793189 C55.1436984,110.690834 60.6759141,121.19425 66.3865883,130.889568 L66.3865883,130.889568 L66.3865883,130.889568 C72.0974688,140.585093 76.8713129,148.058684 80.7081206,153.310341 L80.7081206,153.310341 L80.7081206,153.310341 C84.5449283,158.561997 86.8202493,161.430203 87.5340836,161.914958 L87.5340836,161.914958 L87.5340836,161.914958 C94.1371538,85.4826138 106.183159,37.2478842 123.672099,17.2107696 L123.672099,17.2107696 L123.672099,17.2107696 C129.025856,11.2317726 134.647353,8.16151606 140.536588,8 L140.536588,8 L140.536588,8 C146.394277,9.42047053 150.215414,11.0194588 152,12.7969648 L147.764006,10.666259 L147.764006,10.666259 C146.019215,11.6853238 141.963329,15.4727614 135.596348,22.0285719 C126.045876,31.8622876 123.136723,40.4796568 115.106087,63.5062698 L115.106087,63.5062698 L115.106087,63.5062698 C109.75233,78.8573452 105.558502,95.5416019 102.524604,113.55904 L102.524604,113.55904 L102.524604,113.55904 C99.490911,131.576271 97.9740647,146.240644 97.9740647,157.552159 L97.9740647,157.552159 L99.3123493,178.397372 L99.3123493,178.397372 C91.4601722,187.446418 86.1510555,193.142399 83.3849992,195.485315 L83.3849992,195.485315 L83.3849992,195.485315 C80.6189429,197.828438 78.4327996,199 76.8265694,199 L76.8265694,199 L76.8265694,199 C73.9712322,199 68.4390165,192.940349 60.2299223,180.821046 L60.2299223,180.821046 L60.2299223,180.821046 C52.020828,168.701743 43.4548166,154.320179 34.5318881,137.676353 L34.5318881,137.676353 L34.5318881,137.676353 C25.6089596,121.032527 17.6675016,102.853573 10.7075142,83.1394905 L10.7075142,83.1394905 L10.7075142,83.1394905 C3.74773308,63.4254081 0.178561666,47.02396 0,33.9351462 Z" id="Path"></path>
        </g>
    </g>
</svg>