<?xml version="1.0" encoding="UTF-8"?>
<svg width="512px" height="512px" viewBox="0 0 512 512" version="1.1" xmlns="http://www.w3.org/2000/svg" xmlns:xlink="http://www.w3.org/1999/xlink">
    <!-- Generator: Sketch 64 (93537) - https://sketch.com -->
    <title>Medical</title>
    <desc>Created with Sketch.</desc>
    <defs>
        <linearGradient x1="23.2586214%" y1="4.22685323%" x2="89.5109029%" y2="96.0639539%" id="linearGradient-1">
            <stop stop-color="#B3E5FC" offset="0%"></stop>
            <stop stop-color="#C8E6C9" offset="100%"></stop>
        </linearGradient>
    </defs>
    <g id="Medical" stroke="none" stroke-width="1" fill="none" fill-rule="evenodd">
        <g id="Group" transform="translate(19.000000, 19.000000)">
            <circle id="Oval" fill="url(#linearGradient-1)" cx="237.5" cy="237.5" r="237.5"></circle>
            <circle id="Oval" fill="#B3E5FC" cx="237.5" cy="237.5" r="207.5"></circle>
            <circle id="Oval" fill="#03A9F4" cx="237.5" cy="237.5" r="186.5"></circle>
        </g>
        <g id="Group" transform="translate(142.000000, 141.000000)" fill="#FFFFFF" fill-rule="nonzero">
            <path d="M229.393219,64.6701714 L229.393219,64.6701714 L229.393219,64.6701714 C229.393219,65.6728041 229.443724,66.857712 229.544735,68.2248949 L229.544735,68.2248949 L229.544735,68.2248949 C229.645985,69.5920778 229.69661,71.1415358 229.69661,72.8732689 L229.69661,72.8732689 L229.69661,72.8732689 C229.69661,75.061049 229.342594,77.7727802 228.634564,81.0084624 L228.634564,81.0084624 L228.634564,81.0084624 C227.926294,84.2441446 226.788251,87.6394672 225.220435,91.1944303 L225.220435,91.1944303 L225.220435,91.1944303 C223.652379,94.7491538 221.55342,98.3038773 218.923558,101.858601 L218.923558,101.858601 L218.923558,101.858601 C216.293457,105.413564 213.056455,108.603857 209.212553,111.42948 L209.212553,111.42948 L209.212553,111.42948 C205.368651,114.254864 200.841851,116.556296 195.632153,118.333778 L195.632153,118.333778 L195.632153,118.333778 C190.422695,120.111259 184.479834,121 177.80357,121 L177.80357,121 L177.80357,121 C171.835337,121 165.740601,119.974493 159.519363,117.923479 L159.519363,117.923479 L159.519363,117.923479 C153.298364,115.872705 147.633641,112.682531 142.525193,108.352959 L142.525193,108.352959 L142.525193,108.352959 C137.416984,104.023387 133.219067,98.5089068 129.93144,91.8095189 L129.93144,91.8095189 L129.93144,91.8095189 C126.643813,85.1101309 125,77.1118234 125,67.8145963 L125,67.8145963 L125,67.8145963 C125,61.9810749 125.834533,56.2386911 127.503599,50.5874448 L127.503599,50.5874448 L127.503599,50.5874448 C129.172665,44.9361985 131.398126,39.6039935 134.179983,34.5908297 L134.179983,34.5908297 L134.179983,34.5908297 C136.961839,29.577666 140.249346,24.9519267 144.042504,20.7136117 L144.042504,20.7136117 L144.042504,20.7136117 C147.835901,16.4750572 151.831558,12.8290764 156.029476,9.77566927 L156.029476,9.77566927 L156.029476,9.77566927 C160.227633,6.72226214 164.577425,4.32957227 169.078852,2.59759965 L169.078852,2.59759965 L169.078852,2.59759965 C173.58028,0.865866549 177.955205,0 182.203628,0 L182.203628,0 L182.203628,0 C189.588162,0 195.682898,1.0482614 200.487835,3.14478419 L200.487835,3.14478419 L200.487835,3.14478419 C205.292773,5.24106747 209.111423,7.83878688 211.943784,10.9379424 L211.943784,10.9379424 L211.943784,10.9379424 C214.776146,14.0368584 216.773975,17.3409238 217.93727,20.8501384 L217.93727,20.8501384 L217.93727,20.8501384 C219.100566,24.359353 219.682214,27.5267719 219.682214,30.352395 L219.682214,30.352395 L219.682214,30.352395 C219.682214,33.0870004 218.948811,36.2089104 217.482005,39.718125 L217.482005,39.718125 L217.482005,39.718125 C216.015199,43.2273396 213.612731,46.5542791 210.274599,49.6989435 L210.274599,49.6989435 L210.274599,49.6989435 C206.936467,52.843608 202.586794,55.4868363 197.225581,57.6286284 L197.225581,57.6286284 L197.225581,57.6286284 C191.864128,59.7706601 185.288995,60.841676 177.50018,60.841676 L177.50018,60.841676 L177.50018,60.841676 C173.352767,60.841676 169.635248,60.3176052 166.347621,59.2694635 L166.347621,59.2694635 L166.347621,59.2694635 C163.059994,58.2213219 160.151755,56.8996478 157.622903,55.3044414 L157.622903,55.3044414 L157.622903,55.3044414 C153.779241,53.2824095 150.972251,51.3371439 149.201935,49.4686446 C150.572279,44.3934451 150.970815,40.8487814 150.397545,38.8346537 C150.272598,38.3959719 150.287319,37.2477107 150.070099,36.9541783 L149.398331,38.821001 L146.697977,44.8450609 L146.697977,44.8450609 C144.877156,50.4963072 143.966746,57.1046774 143.966746,64.6701714 L143.966746,64.6701714 L143.966746,64.6701714 C143.966746,69.8656102 144.801279,74.5369782 146.470345,78.6842754 L146.470345,78.6842754 L146.470345,78.6842754 C148.139411,82.8315726 150.44075,86.3635416 153.374361,89.2801826 L153.374361,89.2801826 L153.374361,89.2801826 C156.307733,92.1968235 159.79762,94.4299927 163.844022,95.9796902 L163.844022,95.9796902 L163.844022,95.9796902 C167.890184,97.5291483 172.340987,98.3038773 177.19643,98.3038773 L177.19643,98.3038773 L177.19643,98.3038773 C183.265913,98.3038773 188.576621,97.3696276 193.128554,95.5011283 L193.128554,95.5011283 L193.128554,95.5011283 C197.680726,93.632629 201.651131,91.2855678 205.039768,88.4599447 L205.039768,88.4599447 L205.039768,88.4599447 C208.428405,85.6343215 211.361897,82.5580402 213.840243,79.2311006 L213.840243,79.2311006 L213.840243,79.2311006 C216.31859,75.9041611 218.468174,72.8506342 220.288995,70.07052 L220.288995,70.07052 L220.288995,70.07052 C222.109816,67.2906452 223.703004,64.9892127 225.06856,63.1662223 L225.06856,63.1662223 L225.06856,63.1662223 C226.434116,61.3432319 227.774419,60.4772456 229.08947,60.5682633 L229.08947,60.5682633 L229.08947,60.5682633 C229.69649,60.5682633 230,61.0240708 230,61.9356858 L230,61.9356858 L230,61.9356858 C230,62.3912537 229.949375,62.8469415 229.848125,63.3027489 L229.848125,63.3027489 L229.848125,63.3027489 C229.747115,63.7585564 229.595479,64.2143639 229.393219,64.6701714 Z M183.720939,13.8089547 L183.720939,13.8089547 L183.720939,13.8089547 C181.900357,13.8089547 179.548513,14.1507504 176.665407,14.8343419 L176.665407,14.8343419 L176.665407,14.8343419 C173.78254,15.5181729 170.747918,16.7259549 167.561541,18.457688 L167.561541,18.457688 L167.561541,18.457688 C164.375165,20.1894211 161.21404,22.5364823 158.078169,25.4988717 L158.078169,25.4988717 L158.078169,25.4988717 L150.899485,35.380888 L149.884474,36.7784901 C150.572398,37.0163339 151.019046,37.1709444 151.224418,37.2423215 C157.440151,39.4023172 162.177709,41.1847089 165.437091,42.5891373 L165.437091,42.5891373 L165.437091,42.5891373 C168.926978,44.0930864 172.846758,44.8450609 177.19643,44.8450609 L177.19643,44.8450609 L177.19643,44.8450609 C180.635812,44.8450609 183.594676,44.3209901 186.073022,43.2728485 L186.073022,43.2728485 L186.073022,43.2728485 C188.551369,42.2247068 190.599822,40.8802784 192.218383,39.239563 L192.218383,39.239563 L192.218383,39.239563 C193.836704,37.5988477 195,35.7986118 195.70827,33.8388552 L195.70827,33.8388552 L195.70827,33.8388552 C196.416301,31.8793381 196.770316,29.9424557 196.770316,28.028208 L196.770316,28.028208 L196.770316,28.028208 C196.770316,23.9266592 195.60702,20.5313366 193.280429,17.8422401 L193.280429,17.8422401 L193.280429,17.8422401 C190.953837,15.1533832 187.767341,13.8089547 183.720939,13.8089547 Z" id="Shape"></path>
            <path d="M0,40.0087294 L0,40.0087294 L0,40.0087294 C0,39.4478342 4.80432242,34.6333244 14.4129673,25.5651998 L14.4129673,25.5651998 L14.4129673,25.5651998 C24.0216121,16.4970753 29.8591157,11.963013 31.9254781,11.963013 L31.9254781,11.963013 L31.9254781,11.963013 C33.9918405,11.963013 35.0250217,15.7025138 35.0250217,23.1815155 L35.0250217,23.1815155 L35.0250217,23.1815155 C35.0250217,38.3261639 37.2463315,54.2654937 41.6889509,70.999505 L41.6889509,70.999505 L41.6889509,70.999505 C46.1315704,87.7332763 51.4524237,102.644139 57.6515109,115.732091 L57.6515109,115.732091 L57.6515109,115.732091 C63.8505981,128.820284 70.2563216,140.973452 76.8686812,152.191595 L76.8686812,152.191595 L76.8686812,152.191595 C83.4812797,163.409977 89.0088886,172.05743 93.4515081,178.133954 L93.4515081,178.133954 L93.4515081,178.133954 C97.8941275,184.210478 100.52871,187.529188 101.355255,188.090083 L101.355255,188.090083 L101.355255,188.090083 C109.000915,99.6526578 122.948921,43.8417927 143.199272,20.6574874 L143.199272,20.6574874 L143.199272,20.6574874 C149.39836,13.7393809 155.907461,10.1868851 162.726576,10 L162.726576,10 L162.726576,10 C169.509163,11.6435811 173.933638,13.4937194 176,15.5504148 L171.095165,13.0850432 L171.095165,13.0850432 C169.074881,14.2641705 164.378592,18.6464936 157.006298,26.2320125 C145.947857,37.6102909 142.579364,47.5811735 133.280733,74.2245321 L133.280733,74.2245321 L133.280733,74.2245321 C127.081646,91.9867711 122.225634,111.291592 118.712699,132.138994 L118.712699,132.138994 L118.712699,132.138994 C115.200002,152.986156 113.443654,169.953834 113.443654,183.042027 L113.443654,183.042027 L114.993247,207.161357 L114.993247,207.161357 C105.901252,217.631719 99.7538537,224.222357 96.5510517,226.93327 L96.5510517,226.93327 L96.5510517,226.93327 C93.3482496,229.644423 90.8169259,231 88.9570803,231 L88.9570803,231 L88.9570803,231 C85.6509005,231 79.2451771,223.988571 69.73991,209.965713 L69.73991,209.965713 L69.73991,209.965713 C60.234643,195.942855 50.3161035,179.302406 39.9842915,160.044366 L39.9842915,160.044366 L39.9842915,160.044366 C29.6524795,140.786327 20.4571071,119.75204 12.3981744,96.9415047 L12.3981744,96.9415047 L12.3981744,96.9415047 C4.33948041,74.1309696 0.206755614,55.1533778 0,40.0087294 Z" id="Path"></path>
        </g>
    </g>
</svg>